<svg xmlns="http://www.w3.org/2000/svg" width="417.154" height="422.069" viewBox="0 0 417.154 422.069">
  <g id="Group_41029" data-name="Group 41029" transform="translate(11506.342 -16126.001)">
    <path id="Path_96199" data-name="Path 96199" d="M1445.495,583.193c-5.155-3.96,16.982-20.084,11.686-37.686-4.836-16.085-26.809-14.244-30.35-29.234-3.787-16.041,19.5-26.1,14.975-42.265-3.48-12.454-18.347-10.2-23.246-23.184-5.886-15.6,13.8-23.571,14.463-46.6.623-21.512-16.189-26.918-10.243-45.522.775-2.424,5.745-16.993,17.579-20.6,19.249-5.858,53.04,18.408,57,46.688,3.33,23.812-16.984,32.656-11.394,57.361,4.74,20.939,20.585,20.107,20.232,37.51-.415,20.6-22.743,28.641-21.438,51.341.685,11.889,7.025,13.43,4.758,22.635-4.79,19.436-38.339,33.92-44.02,29.554" transform="translate(-12676.606 15789.29)" fill="#4c956c"/>
    <path id="Path_96200" data-name="Path 96200" d="M1444.986,336.015a21.207,21.207,0,0,0-6.181.868c-11.35,3.452-16.354,17.483-17.243,20.262-3.107,9.721.083,15.674,3.78,22.566,3.178,5.929,6.783,12.648,6.488,22.814-.325,11.283-5.12,18.933-9.353,25.682-4.343,6.931-8.093,12.913-5.143,20.727,2.366,6.279,7.18,8.922,11.837,11.48,4.726,2.595,9.615,5.277,11.423,11.748,2.355,8.423-2.643,15.258-7.477,21.867-4.788,6.546-9.309,12.727-7.493,20.416,1.7,7.212,7.809,10.409,14.277,13.792,6.67,3.492,13.566,7.1,16.066,15.411,3.224,10.722-3.406,20.748-8.248,28.069-2.973,4.5-5.323,8.052-3.619,9.362,1.584,1.218,6,.77,11.518-1.163,10.9-3.817,28.332-14.454,31.7-28.11,1.178-4.774-.03-7.373-1.557-10.662a29.136,29.136,0,0,1-3.213-11.82c-.7-12.1,5.245-20.135,10.992-27.9,5.27-7.127,10.25-13.857,10.446-23.477.176-8.7-3.794-12.729-8.388-17.394-4.447-4.516-9.489-9.637-11.832-19.995-2.952-13.043,1.285-21.86,5.385-30.384,3.722-7.75,7.574-15.763,6-27.017-2.466-17.621-15.923-31.93-27.7-39.447C1459.562,338.67,1451.693,336.015,1444.986,336.015Zm2.023,246.757a5.82,5.82,0,0,1-3.529-.886c-2.456-1.889,0-5.6,3.39-10.732,4.73-7.152,11.207-16.947,8.121-27.213-2.376-7.9-9.081-11.407-15.564-14.8-6.384-3.342-12.985-6.8-14.8-14.459-1.924-8.146,2.95-14.809,7.662-21.254,4.908-6.707,9.542-13.045,7.321-20.99-1.7-6.059-6.181-8.522-10.933-11.133-4.818-2.643-9.8-5.381-12.3-12.009-3.127-8.287.747-14.468,5.233-21.627,4.163-6.641,8.879-14.164,9.2-25.172.286-9.9-3.1-16.2-6.368-22.3-3.646-6.8-7.092-13.225-3.854-23.359.916-2.862,6.082-17.323,17.916-20.926,8.015-2.435,18.762.09,29.492,6.942,11.966,7.638,25.647,22.2,28.159,40.161,1.617,11.562-2.3,19.715-6.093,27.6-4.207,8.755-8.183,17.024-5.31,29.718,2.281,10.077,7.214,15.086,11.564,19.505,4.758,4.832,8.866,9,8.681,18.13-.2,9.945-5.51,17.121-10.644,24.063-5.639,7.623-11.472,15.5-10.8,27.236a28.32,28.32,0,0,0,3.121,11.451c1.55,3.333,2.885,6.214,1.624,11.336-3.462,14.046-21.244,24.935-32.35,28.828a28.78,28.78,0,0,1-8.947,1.893" transform="translate(-12674.903 15791)" fill="#fff"/>
    <path id="Path_96201" data-name="Path 96201" d="M1560.742,685.21a.509.509,0,0,1-.281-.934c13.377-8.833,20.8-17.928,22.074-27.031.946-6.772-1.965-11.281-5.046-16.055-3.287-5.092-6.686-10.358-6.3-18.9.408-9.013,4.209-14.067,7.885-18.954,3.376-4.488,6.564-8.727,6.525-15.7-.055-9.867-6.4-14.879-13.114-20.188-6.564-5.189-13.352-10.554-14.152-20.792-.643-8.234,3.033-14.12,6.926-20.35,4.239-6.783,8.621-13.8,8.589-24.891a44.924,44.924,0,0,0-7.5-24.2.509.509,0,1,1,.858-.547,45.925,45.925,0,0,1,7.664,24.743c.03,11.384-4.631,18.848-8.746,25.433-3.8,6.084-7.39,11.829-6.771,19.732.766,9.793,7.373,15.017,13.765,20.07,6.61,5.224,13.444,10.628,13.5,20.981.044,7.321-3.245,11.694-6.728,16.323-3.584,4.765-7.288,9.689-7.683,18.389-.371,8.222,2.936,13.347,6.137,18.3,3.185,4.94,6.2,9.6,5.2,16.749-1.312,9.405-8.889,18.737-22.522,27.739a.5.5,0,0,1-.279.085" transform="translate(-12784.931 15682.19)" fill="#fff"/>
    <path id="Path_96202" data-name="Path 96202" d="M1523.617,861.977c-2.777-3.409,16.973-15.391,27.257-48,6.227-19.745,5.868-37.167,5.4-53.49-1.156-40.38-10.944-45.54-5.881-65.944,6.073-24.487,23.442-20.739,34.409-47.316,13.527-32.778-8.234-49.779,6.562-80.05,8.084-16.542,25.723-34.264,45.786-33.565,12.143.424,26.734,7.648,30.265,19.072,3.406,11.025-6.024,17.752-10.425,33.641-7.858,28.371,13.649,37.816,11.188,64.983-3.34,36.87-44.956,41.621-50.842,86.107-2.371,17.918,4.182,18.636,2.385,35.611-6.066,57.288-90.614,95.69-96.1,88.951" transform="translate(-12758.073 15638.21)" fill="#4c956c"/>
    <path id="Path_96203" data-name="Path 96203" d="M1634.3,532.412c-19.171,0-36.277,17.106-44.193,33.3-7.411,15.164-5.581,26.84-3.644,39.2,1.887,12.039,3.836,24.487-2.9,40.821-5.381,13.038-12.429,18.961-18.647,24.185-6.792,5.708-12.657,10.64-15.739,23.059-2.632,10.614-1.218,16.991.922,26.646a185.273,185.273,0,0,1,4.975,39.163c.45,15.667.957,33.427-5.422,53.656-6.555,20.783-16.8,33.067-22.928,40.406-3,3.6-5.171,6.2-4.421,7.117.625.768,3.33.982,9.048-.717,20.333-6.047,81.017-39.439,86.153-87.964a42.354,42.354,0,0,0-1.289-16.846,43.591,43.591,0,0,1-1.093-18.779c3.07-23.2,15.619-35.509,27.753-47.41,11.052-10.84,21.493-21.08,23.087-38.674,1.114-12.3-2.768-21-6.52-29.411-4.61-10.333-8.963-20.094-4.65-35.664a76,76,0,0,1,6.486-15.43c3.321-6.39,5.946-11.439,3.942-17.925-3.458-11.183-17.863-18.3-29.8-18.711C1635.042,532.418,1634.671,532.412,1634.3,532.412ZM1524.492,861.555a3.784,3.784,0,0,1-2.984-.948c-1.28-1.571.747-4,4.428-8.414,6.075-7.281,16.244-19.468,22.739-40.057,6.329-20.066,5.821-37.735,5.376-53.324a184.353,184.353,0,0,0-4.952-38.969c-2.173-9.8-3.607-16.267-.918-27.112,3.162-12.743,9.433-18.013,16.073-23.592,6.428-5.4,13.075-10.99,18.361-23.795,6.631-16.071,4.7-28.375,2.837-40.277-1.96-12.521-3.815-24.352,3.739-39.8,8.206-16.792,26.191-34.536,46.262-33.848,12.286.426,27.142,7.812,30.733,19.429,2.126,6.885-.581,12.1-4.011,18.7a75.2,75.2,0,0,0-6.409,15.231c-4.214,15.218.067,24.814,4.6,34.976,3.806,8.534,7.743,17.358,6.605,29.917-1.628,17.969-12.2,28.336-23.389,39.313-12.012,11.779-24.432,23.959-27.456,46.815a42.208,42.208,0,0,0,1.072,18.4,43.326,43.326,0,0,1,1.315,17.2c-2.749,25.958-21.35,46.714-36.469,59.556-17.877,15.185-38.2,25.645-50.409,29.275a27.7,27.7,0,0,1-7.143,1.333" transform="translate(-12756.356 15639.901)" fill="#fff"/>
    <path id="Path_96204" data-name="Path 96204" d="M1751.693,923.536a.51.51,0,0,1-.5-.625,65.006,65.006,0,0,0,1.57-10.755c.667-11-1.61-20.633-3.807-29.949-3.358-14.219-6.527-27.649.784-44.361,5.145-11.765,12.547-18.128,19.074-23.742,7.722-6.638,14.387-12.369,16.737-25.05,1.638-8.838.03-14.832-2.009-22.422-1.979-7.374-4.223-15.732-4.075-29.029a117.382,117.382,0,0,1,7.321-39.176.51.51,0,0,1,.957.351,116.406,116.406,0,0,0-7.26,38.836c-.145,13.157,2.08,21.445,4.043,28.756,1.988,7.408,3.7,13.806,2.025,22.872-2.415,13.031-9.535,19.154-17.075,25.635-6.76,5.812-13.753,11.825-18.806,23.378-7.175,16.4-4.043,29.669-.724,43.72,2.214,9.387,4.507,19.095,3.833,30.244a66.071,66.071,0,0,1-1.6,10.923.511.511,0,0,1-.5.395" transform="translate(-12928.834 15511.651)" fill="#fff"/>
    <path id="Path_96205" data-name="Path 96205" d="M417.012,1585.405s-6.025,7.161-23.852,7.71c-15.66.482-15.9-3.986-15.726-6.329.186-2.468,1.9-5.656,15.485-7.164,15.178-1.686,24.093,5.782,24.093,5.782" transform="translate(-11876.428 14833.627)" stroke="#c7c7c7" stroke-width="1"/>
    <path id="Path_96206" data-name="Path 96206" d="M427.862,2137.992a34.864,34.864,0,0,1-7.708-.814.509.509,0,1,1,.226-.992c8.974,2.044,18.358-.586,18.452-.611a.509.509,0,0,1,.279.978,44.831,44.831,0,0,1-11.25,1.439" transform="translate(-11909.011 14405.725)"/>
    <path id="Path_96207" data-name="Path 96207" d="M448.77,1989.96l1.42,13.533,9.15,1.073V1988.52l-10.57,1.439" transform="translate(-11931.331 14518.847)" fill="#fff"/>
    <path id="Path_96208" data-name="Path 96208" d="M448.955,2001.333l8.177.959V1987.4l-9.5,1.3Zm8.686,2.039a.486.486,0,0,1-.06,0l-9.15-1.073a.511.511,0,0,1-.447-.452l-1.42-13.534a.508.508,0,0,1,.437-.556l10.57-1.442a.5.5,0,0,1,.4.122.506.506,0,0,1,.174.383v16.045a.506.506,0,0,1-.509.508" transform="translate(-11929.633 14520.55)"/>
    <path id="Path_96209" data-name="Path 96209" d="M430.972,2057.3a63.893,63.893,0,0,1-17.392-.007,4.092,4.092,0,0,1-3.436-5.024c1.616-6.568,4.4-19.032,9.182-24.809l1.187,3.132,1.64-2.948a1.449,1.449,0,0,1,1.087-.736l3.592-.455a1.452,1.452,0,0,1,1.6,1.142l.571,2.717,1.8-3.568,1.532,13.795q.455,4.11,1.284,8.164l.82,4.015c.554,2.92-1.251,4.267-3.466,4.58" transform="translate(-11901.522 14489.676)" fill="#fff"/>
    <path id="Path_96210" data-name="Path 96210" d="M429.28,2055.591h.005Zm-11.8-28.811c-4.062,5.528-6.627,16.071-8.185,22.48l-.347,1.423a3.518,3.518,0,0,0,.51,2.848,3.628,3.628,0,0,0,2.5,1.55,63.375,63.375,0,0,0,17.251,0,3.839,3.839,0,0,0,2.629-1.354,3.317,3.317,0,0,0,.408-2.627l-.819-4.009c-.551-2.7-.986-5.466-1.291-8.211l-1.343-12.088-1.024,2.034a.508.508,0,0,1-.952-.125l-.571-2.717a.95.95,0,0,0-1.042-.742l-3.591.457a.948.948,0,0,0-.706.478l-1.64,2.949a.509.509,0,0,1-.921-.067Zm3.151,29.912a64.448,64.448,0,0,1-8.811-.6,4.651,4.651,0,0,1-3.2-1.986,4.588,4.588,0,0,1-.657-3.663l.347-1.421c1.649-6.778,4.407-18.121,8.937-23.592a.509.509,0,0,1,.868.143l.8,2.108,1.107-1.992a1.969,1.969,0,0,1,1.467-.991l3.592-.457a1.971,1.971,0,0,1,2.166,1.543l.272,1.3,1.142-2.269a.5.5,0,0,1,.544-.272.509.509,0,0,1,.416.445l1.531,13.794c.3,2.715.732,5.445,1.277,8.116l.82,4.018a4.292,4.292,0,0,1-.578,3.416,4.726,4.726,0,0,1-3.315,1.769,62.847,62.847,0,0,1-8.72.6" transform="translate(-11899.832 14491.38)"/>
    <path id="Path_96211" data-name="Path 96211" d="M443.722,2098.149a.509.509,0,0,1-.016-1.018l8.576-.283a.509.509,0,1,1,.034,1.017l-8.577.284h-.017" transform="translate(-11927.056 14435.505)"/>
    <path id="Path_96212" data-name="Path 96212" d="M431.227,2135.254a.3.3,0,0,1-.05,0c-4.086-.394-4.2-2.481-4.205-2.569a.509.509,0,0,1,.492-.526.492.492,0,0,1,.525.478c.007.053.219,1.3,3.254,1.6l8.543-.284c.053,0,3.229,0,3.522-1.854a.509.509,0,0,1,1.005.159c-.429,2.717-4.355,2.712-4.515,2.714l-8.555.281h-.016" transform="translate(-11914.561 14408.713)"/>
    <path id="Path_96213" data-name="Path 96213" d="M634.582,1963.52l1.371,19.747h11.011l.511-19.747H634.582" transform="translate(-12074.288 14538.081)" fill="#fff"/>
    <path id="Path_96214" data-name="Path 96214" d="M634.733,1981.067h10.038l.486-18.73H633.432Zm10.535,1.017H634.257a.508.508,0,0,1-.507-.473l-1.371-19.747a.508.508,0,0,1,.507-.544h12.893a.511.511,0,0,1,.364.152.5.5,0,0,1,.144.369l-.511,19.748a.509.509,0,0,1-.509.5" transform="translate(-12072.592 14539.773)"/>
    <path id="Path_96215" data-name="Path 96215" d="M628.058,2030.774a3.976,3.976,0,0,0,3.068,3.932c6.33,1.472,20.588,4.751,24.655,5.358,5.279.787,11.766-.83,14.555-3.918S664.09,2025.686,659.8,2023c-6.37-3.986-12.489-11.859-15.055-12.215s-7.355,7.09-7.355,7.09l-7.83-3.289a96.986,96.986,0,0,0-1.5,16.184" transform="translate(-12069.268 14501.725)" fill="#fff"/>
    <path id="Path_96216" data-name="Path 96216" d="M626.359,2029.081h0Zm1.89-15.469a101.164,101.164,0,0,0-1.381,15.476,3.483,3.483,0,0,0,2.674,3.429c6.043,1.4,20.535,4.742,24.615,5.351,5.292.786,11.488-.863,14.1-3.757a1.6,1.6,0,0,0,.369-1.377c-.458-3.282-7.257-8.778-10.8-10.992a60.951,60.951,0,0,1-9.014-7.512c-2.425-2.3-4.716-4.474-5.841-4.629-1.632-.21-5.074,4.087-6.858,6.859a.507.507,0,0,1-.625.194Zm28.595,25.468a19.265,19.265,0,0,1-2.837-.205c-4.116-.614-18.641-3.958-24.7-5.367a4.5,4.5,0,0,1-3.461-4.433,98.352,98.352,0,0,1,1.515-16.279.508.508,0,0,1,.7-.367l7.439,3.123c1.086-1.63,5.072-7.325,7.619-6.958,1.448.2,3.526,2.17,6.4,4.9a60.224,60.224,0,0,0,8.853,7.387c3.443,2.152,10.725,7.849,11.264,11.714a2.6,2.6,0,0,1-.622,2.2c-2.353,2.6-7.335,4.286-12.171,4.286" transform="translate(-12067.569 14503.416)"/>
    <path id="Path_96217" data-name="Path 96217" d="M666.327,2099.953c-11.44,0-26.824-6.216-27.691-6.571a.509.509,0,0,1,.386-.941c.28.115,28.167,11.385,36.379,3.97a.508.508,0,1,1,.682.754c-2.247,2.03-5.762,2.788-9.755,2.788" transform="translate(-12077.163 14438.924)"/>
    <path id="Path_96218" data-name="Path 96218" d="M705.148,2053.007a.509.509,0,0,1-.342-.886l5.6-5.051a.508.508,0,1,1,.682.754l-5.6,5.051a.508.508,0,0,1-.34.132" transform="translate(-12128.187 14473.902)"/>
    <path id="Path_96219" data-name="Path 96219" d="M416.782,1395.264s-3.412,61.733-5.2,83.044,4.175,55.566,4.175,55.566l16.994-.893s.839-30,1.864-46.149a40.042,40.042,0,0,1,2.744-12.254c2.293-5.773,5.755-15.476,7.124-24.478,2.128-13.984,9.375-36.074,9.375-36.074s5.886,110.25,6.452,118.911c0,0,13.327.595,18.1-2.413,0,0,8.466-40.2,7.251-62.072s.119-76.212.119-76.212l-69.007,3.024" transform="translate(-11902.466 14977.601)" fill="#363636"/>
    <path id="Path_96220" data-name="Path 96220" d="M476.544,1778.585a10.04,10.04,0,0,1-2.885-.425.509.509,0,0,1,.294-.976,8.957,8.957,0,0,0,5.439-.083.509.509,0,1,1,.321.966,9.967,9.967,0,0,1-3.169.517" transform="translate(-11950.201 14681.524)" fill="#fff"/>
    <path id="Path_96221" data-name="Path 96221" d="M660.181,1812.9h-.009a.509.509,0,0,1-.5-.519c.186-10.185,11.371-28.457,11.847-29.229a.509.509,0,0,1,.867.535c-.115.187-11.514,18.8-11.7,28.712a.51.51,0,0,1-.509.5" transform="translate(-12093.59 14677.034)" fill="#fff"/>
    <path id="Path_96222" data-name="Path 96222" d="M979.914,903.2a64.12,64.12,0,0,0,5.828-7.027s6.562-11.069,11.543-15.068,5.761-4.53,5.761-4.53a4.059,4.059,0,0,1,0,4.53,48.913,48.913,0,0,1-4.034,5.012,2.738,2.738,0,0,0-.06,3.563,6.113,6.113,0,0,1,.828,6.493,9.2,9.2,0,0,1-8.077,5.708,1.929,1.929,0,0,0-1.691,1.4c-.36,1.294-1,3.441-1.947,6.128l-8.152-6.209" transform="translate(-12339.974 15374.333)" fill="#fff"/>
    <path id="Path_96223" data-name="Path 96223" d="M978.974,901.446l7.146,5.441c.812-2.348,1.37-4.23,1.707-5.436a2.421,2.421,0,0,1,2.133-1.768,8.668,8.668,0,0,0,7.651-5.389,5.642,5.642,0,0,0-.747-5.982,3.237,3.237,0,0,1,.071-4.225,48.62,48.62,0,0,0,3.985-4.947,3.535,3.535,0,0,0,.275-3.508c-.63.478-2.085,1.605-5.289,4.179-4.85,3.895-11.359,14.82-11.426,14.93A63.631,63.631,0,0,1,978.974,901.446Zm7.395,6.779a.505.505,0,0,1-.309-.1l-8.151-6.206a.513.513,0,0,1-.2-.365.5.5,0,0,1,.138-.389,63.761,63.761,0,0,0,5.775-6.968c.254-.427,6.652-11.165,11.647-15.176,4.94-3.97,5.761-4.532,5.8-4.555a.511.511,0,0,1,.692.115,4.538,4.538,0,0,1,.021,5.108,48.726,48.726,0,0,1-4.082,5.077,2.225,2.225,0,0,0-.046,2.9,6.614,6.614,0,0,1,.909,7,9.651,9.651,0,0,1-8.506,6.029,1.408,1.408,0,0,0-1.245,1.029c-.371,1.331-1.01,3.48-1.958,6.16a.5.5,0,0,1-.334.318.516.516,0,0,1-.145.021" transform="translate(-12338.275 15376.027)"/>
    <path id="Path_96224" data-name="Path 96224" d="M472.894,866.589s20.665-9.989,49.522.93c24.155,9.138-4.181,75.394.353,119.224,0,0-37.994,5.722-48.645-8.732-5.621-7.63-1.23-111.422-1.23-111.422" transform="translate(-11948.636 15385.23)" fill="ivory"/>
    <path id="Path_96225" data-name="Path 96225" d="M471.678,865.343c-1.513,35.927-3.205,104.881,1.144,110.783,9.709,13.176,43.257,9.186,47.679,8.6-1.726-17.662,1.7-38.408,5.02-58.481,4.836-29.259,9.013-54.53-5-59.831C493.991,856.371,474.213,864.24,471.678,865.343Zm32.635,121.48c-11.7,0-26.225-1.834-32.311-10.093-5.662-7.685-1.508-107.5-1.328-111.745a.509.509,0,0,1,.286-.436c.208-.1,21.194-9.961,49.924.909,14.79,5.595,10.551,31.247,5.642,60.949-3.336,20.19-6.787,41.068-4.963,58.7a.509.509,0,0,1-.43.556,123.462,123.462,0,0,1-16.82,1.16" transform="translate(-11946.925 15386.812)"/>
    <path id="Path_96226" data-name="Path 96226" d="M677.784,902.951s-12.549-18.034-25.015-25.258a32.469,32.469,0,0,0-6.742-2.673c-5.068,12.422-12.828,35.47-8.981,52.567,4.56,20.266,3.246,93.393,2.648,118.311,24.8-.542,31.279-1.1,31.279-1.1,3.128-17.176-10.5-117.675-10.5-117.675l17.312-24.168" transform="translate(-12075.388 15375.531)" fill="ivory"/>
    <path id="Path_96227" data-name="Path 96227" d="M644.638,873.936c-4.991,12.325-12.563,35.031-8.781,51.834,4.578,20.347,3.224,94.677,2.673,117.9,20.879-.461,28.6-.939,30.322-1.061,2.814-17.978-10.435-116.131-10.571-117.128a.514.514,0,0,1,.091-.367l17.1-23.874c-1.682-2.352-13.285-18.23-24.645-24.814A31.179,31.179,0,0,0,644.638,873.936Zm-6.63,170.768a.51.51,0,0,1-.509-.521c.541-22.57,1.952-97.8-2.635-118.189-3.887-17.27,3.974-40.537,9.006-52.872a.507.507,0,0,1,.615-.3,32.832,32.832,0,0,1,6.853,2.722c12.421,7.2,25.052,25.225,25.179,25.407a.506.506,0,0,1,0,.586l-17.194,24.005c.859,6.347,13.538,100.792,10.471,117.633a.511.511,0,0,1-.457.417c-.065,0-6.775.57-31.311,1.107h-.012" transform="translate(-12073.701 15377.234)"/>
    <path id="Path_96228" data-name="Path 96228" d="M405.519,931.182c-1.75-21.869-14.409-49.061-21.543-62.893a86.265,86.265,0,0,0-18.185,5.476c-25.4,10.874-16.386,47.869-16.386,47.869l17.238-2.625.064,21.62a425.95,425.95,0,0,1-4.279,61.493l-6.38,36.67c2.319-7.563,37.986-2.373,54.594-.807-2.821-41.049-3.158-82.225-5.124-106.8" transform="translate(-11853.689 15380.709)" fill="ivory"/>
    <path id="Path_96229" data-name="Path 96229" d="M369.564,1032.6c8.466,0,19.52,1.063,31.124,2.316,2.786.3,5.429.586,7.717.809-1.458-21.41-2.249-42.9-2.948-61.883-.645-17.536-1.2-32.682-2.133-44.315-1.721-21.5-14.011-48.162-21.315-62.364a85.9,85.9,0,0,0-17.705,5.373c-10.339,4.429-16.2,13.7-17.407,27.564a69.372,69.372,0,0,0,1.214,19.263l16.769-2.553a.508.508,0,0,1,.586.5l.064,21.62a427.886,427.886,0,0,1-4.284,61.567l-6.024,34.621C357.615,1033.288,362.752,1032.6,369.564,1032.6Zm-15.2,5a.54.54,0,0,1-.119-.014.508.508,0,0,1-.383-.581l6.38-36.669a426.884,426.884,0,0,0,4.271-61.4l-.062-21.03-16.655,2.535a.51.51,0,0,1-.571-.383,69.9,69.9,0,0,1-1.342-20.02c1.224-14.078,7.456-23.912,18.023-28.435a86.737,86.737,0,0,1,18.291-5.51.511.511,0,0,1,.546.268c7.315,14.182,19.85,41.236,21.6,63.084.933,11.656,1.49,26.812,2.137,44.361.7,19.15,1.5,40.858,2.987,62.448a.507.507,0,0,1-.152.4.513.513,0,0,1-.4.143c-2.425-.23-5.292-.54-8.327-.867-16.409-1.774-43.874-4.742-45.731,1.315a.508.508,0,0,1-.486.36" transform="translate(-11852 15382.405)"/>
    <path id="Path_96230" data-name="Path 96230" d="M705.469,1429.224a.118.118,0,0,1-.029,0,3.917,3.917,0,0,1-2.79-1.439c-3.959-4.523-2.924-18.555-2.879-19.15a.508.508,0,0,1,.195-.362.5.5,0,0,1,.4-.1,28.792,28.792,0,0,0,10.936-.561.508.508,0,1,1,.262.982,29.464,29.464,0,0,1-10.813.664c-.15,2.641-.6,14.129,2.664,17.856a2.912,2.912,0,0,0,2.081,1.1.509.509,0,0,1-.028,1.017" transform="translate(-12124.322 14965.792)"/>
    <path id="Path_96231" data-name="Path 96231" d="M471.76,1429.654H471.7a.508.508,0,0,1,0-1.017.484.484,0,0,1,.06,0,7.715,7.715,0,0,0,5.939-2.6c5.07-5.579,4.451-18.442,4.236-21.371-12.318,3.236-24.735-.784-24.861-.826a.509.509,0,1,1,.32-.966c.125.042,12.658,4.092,24.86.648a.512.512,0,0,1,.424.069.505.505,0,0,1,.22.369c.068.657,1.571,16.138-4.445,22.76a8.7,8.7,0,0,1-6.692,2.934" transform="translate(-11937.45 14969.44)"/>
    <path id="Path_96232" data-name="Path 96232" d="M796.934,966.733c-4.77,13.513-17.429,34.571-41.983,35.641-8.53.374-16.837-8.089-28.084-16.493,0,0,11.778-35.426,12.559-34.464,3.672,4.516,12.859,17.549,20.878,17.766,11.878.323,17.591-6.675,23.728-13.162l12.9,10.713" transform="translate(-12145.287 15316.77)" fill="ivory"/>
    <path id="Path_96233" data-name="Path 96233" d="M759.982,998.585c-6.718,0-13.1-5.058-21.132-11.412-1.455-1.151-2.96-2.343-4.517-3.543a.509.509,0,1,1,.621-.807c1.563,1.2,3.071,2.4,4.528,3.552,8.092,6.4,14.482,11.463,21.038,11.179,27.02-1.181,38.4-26.62,41.405-34.97L789.665,952.4l-.857.914c-5.7,6.081-11.6,12.35-22.926,12.062-7.332-.2-15.43-10.536-19.781-16.087-.905-1.155-1.62-2.066-2.141-2.654a.509.509,0,0,1,.761-.676c.542.609,1.265,1.534,2.18,2.7,4.248,5.42,12.154,15.51,19.007,15.7,10.875.314,16.357-5.552,22.156-11.74q.593-.637,1.188-1.266a.51.51,0,0,1,.7-.042l12.9,10.714a.511.511,0,0,1,.155.563c-2.869,8.13-14.413,34.755-42.44,35.98-.193.009-.388.012-.582.014" transform="translate(-12150.878 15321.082)"/>
    <path id="Path_96234" data-name="Path 96234" d="M608.7,1040.851H576.37a3.324,3.324,0,0,1-3.214-4.17l11.995-45.594a3.324,3.324,0,0,1,3.215-2.478H620.7a3.324,3.324,0,0,1,3.215,4.168l-12,45.6a3.324,3.324,0,0,1-3.215,2.479" transform="translate(-12026.944 15288.141)"/>
    <path id="Path_96235" data-name="Path 96235" d="M549.746,1059.393l4.179-1.681a6,6,0,0,0,3.5-3.773c.22-.7.472-1.578.758-2.661,1.12-4.255,4.434-6.792,5.713-5.04.768,1.05-1.155,4.244-.781,6.34.642,3.6,7.038.948,8.094.542,2.4-.925,2.813-1.69,4.664-2.9a1.887,1.887,0,0,1,2.887,1.9c-.5,3.005-1.709,6.836-4.671,8.684-4.739,2.957-7.136,3.056-9.542,3.233a8.1,8.1,0,0,0-3.8,1.292c-1.734,1.125-4.541,2.915-7.966,4.984l-3.03-10.916" transform="translate(-12009.018 15244.235)" fill="#fff"/>
    <path id="Path_96236" data-name="Path 96236" d="M548.658,1058l2.729,9.832c3.158-1.919,5.737-3.563,7.379-4.629a8.617,8.617,0,0,1,4.042-1.372l.206-.016c2.265-.164,4.606-.337,9.1-3.144,2.823-1.76,3.971-5.5,4.437-8.333a1.374,1.374,0,0,0-.612-1.393,1.331,1.331,0,0,0-1.494,0c-.586.383-1.018.717-1.435,1.04a11.358,11.358,0,0,1-3.324,1.912l-.141.055c-3.535,1.379-5.947,1.661-7.376.86a2.509,2.509,0,0,1-1.26-1.843,8.9,8.9,0,0,1,.526-3.706c.264-.929.592-2.087.346-2.424a.83.83,0,0,0-.905-.33c-1.284.242-3.142,2.3-3.9,5.2-.265,1.005-.522,1.907-.764,2.682a6.5,6.5,0,0,1-3.794,4.094Zm2.418,11.124a.528.528,0,0,1-.188-.035.513.513,0,0,1-.3-.339l-3.03-10.916a.509.509,0,0,1,.3-.609l4.179-1.682a5.478,5.478,0,0,0,3.2-3.453c.237-.761.49-1.647.751-2.638.8-3.031,2.818-5.586,4.7-5.941a1.841,1.841,0,0,1,1.916.731c.54.738.2,1.926-.188,3.3a8.263,8.263,0,0,0-.5,3.247,1.52,1.52,0,0,0,.757,1.135c.777.436,2.536.63,6.507-.923l.146-.055a10.321,10.321,0,0,0,3.068-1.769c.413-.318.881-.68,1.5-1.084a2.356,2.356,0,0,1,2.607,0,2.38,2.38,0,0,1,1.062,2.412c-.5,3.037-1.759,7.069-4.9,9.032-4.711,2.938-7.18,3.121-9.568,3.3l-.206.014a7.6,7.6,0,0,0-3.564,1.211c-1.746,1.133-4.549,2.92-7.981,4.993a.51.51,0,0,1-.263.074" transform="translate(-12007.318 15245.932)"/>
    <path id="Path_96237" data-name="Path 96237" d="M399.553,1051.465C386.9,1059.113,365.8,1070.6,359,1066.659c-8.716-5.046-11.124-39.019-11.124-41.051l26.394-5.538,1.245,12.791a5.371,5.371,0,0,0,5.615,4.744,52.267,52.267,0,0,0,13.42-2l5,15.856" transform="translate(-11853.707 15263.936)" fill="ivory"/>
    <path id="Path_96238" data-name="Path 96238" d="M360.938,1070.565a7.739,7.739,0,0,1-3.892-.865c-9.274-5.369-11.378-41.144-11.378-41.492a.509.509,0,1,1,1.018,0c0,2.9,2.607,35.827,10.87,40.611,4.885,2.83,18.975-2.493,39.694-14.982l-4.741-15.019a50.032,50.032,0,0,1-12.047,1.847l-1.005.051a5.909,5.909,0,0,1-6.147-5.194l-1.12-11.513a.509.509,0,0,1,1.014-.1l1.119,11.5a4.876,4.876,0,0,0,5.082,4.285l1.008-.051a50.32,50.32,0,0,0,12.316-1.933.508.508,0,0,1,.608.339l5,15.859a.508.508,0,0,1-.223.588c-12.736,7.7-28.559,16.062-37.181,16.064" transform="translate(-11852.009 15261.336)"/>
    <path id="Path_96239" data-name="Path 96239" d="M548.272,772.1a.4.4,0,0,1,.223.312l1.667,14.2c.335,2.016,0,4.325,2.328,5.383l2.589,1.057a1.324,1.324,0,0,1-.062,2.477,41.662,41.662,0,0,1-13.087,2.466,24.461,24.461,0,0,1-11.986-3.443,1.33,1.33,0,0,1,.326-2.433l.433-.118c1.934-.521,3.172-2.966,3.441-4.952l2.043-20.185a.4.4,0,0,1,.569-.318l11.516,5.558" transform="translate(-11993.273 15459.024)" fill="#fff"/>
    <path id="Path_96240" data-name="Path 96240" d="M546.352,770.86Zm-11.373-5.49L532.95,785.4c-.306,2.26-1.713,4.827-3.814,5.395l-.433.115a.8.8,0,0,0-.6.69.794.794,0,0,0,.4.812,23.862,23.862,0,0,0,11.674,3.374h.056a41.021,41.021,0,0,0,12.921-2.435.816.816,0,0,0,.037-1.525l-2.588-1.058c-2.147-.973-2.333-2.883-2.495-4.566-.04-.4-.079-.815-.144-1.2L546.3,770.833Zm5.194,31.431a24.861,24.861,0,0,1-12.183-3.512,1.838,1.838,0,0,1,.449-3.365l.433-.118c1.655-.445,2.816-2.666,3.069-4.53l2.041-20.167a.908.908,0,0,1,1.3-.726l11.516,5.559a.9.9,0,0,1,.506.713l1.667,14.2c.067.4.108.828.149,1.245.157,1.615.292,3.008,1.885,3.733l2.571,1.049a1.833,1.833,0,0,1-.086,3.428,42.013,42.013,0,0,1-13.255,2.495h-.059" transform="translate(-11991.574 15460.717)"/>
    <path id="Path_96241" data-name="Path 96241" d="M562.783,665.282c-4.058-1.239.078,4.258-14.055-3.887-5.628-3.245-4.3,4.58-5.761,3.744-5.4-3.093-5.213-2.994-8.233-2.936-2,.037-4.072,3.206-4.354,5.879-.371,3.531,2.231,5.1,2.955,12.925.509,5.5-.677,8.473,1.173,9.708,1.87,1.248,4.064-1.141,6.21.065,2.777,1.563.921,6.587,3.3,9.436,1.5,1.8,5.606,3.457,13.249,1.792a2.651,2.651,0,0,0,2.08-2.662c-.044-1.628-.112-3.685-.341-5.645-1.089-9.341-3.662-12.02-2.013-13.97,2.526-2.989,8.476.524,10.226-2.012,1.817-2.632,1.122-10.741-4.434-12.436" transform="translate(-11994.091 15540.495)" stroke="#fff" stroke-width="1"/>
    <path id="Path_96242" data-name="Path 96242" d="M593.266,711.333l.638,2.486a26.224,26.224,0,0,1,.657,3.563c.257,2.254.727,6.128,1.155,8.276.629,3.157,10.516,1.891,10.516,1.891l.974-1.619,1.156-.173a1.305,1.305,0,0,0,.619-.256,1.251,1.251,0,0,0,.4-1.421c-1-2.7-3-8.709-3.027-13.672a13.609,13.609,0,0,0-13.09.925" transform="translate(-12042.501 15503.142)" fill="#fff"/>
    <path id="Path_96243" data-name="Path 96243" d="M592.152,709.822l.544,2.122a26.809,26.809,0,0,1,.669,3.633c.246,2.155.721,6.089,1.149,8.234.382,1.919,6.054,1.951,9.708,1.516l.846-1.407a.509.509,0,0,1,.36-.24l1.156-.176a.806.806,0,0,0,.378-.148.752.752,0,0,0,.243-.849c-1.106-2.984-2.949-8.655-3.055-13.525A13.258,13.258,0,0,0,592.152,709.822Zm8.235,16.746c-2.968,0-6.453-.459-6.871-2.559-.435-2.18-.914-6.147-1.161-8.318a25.975,25.975,0,0,0-.644-3.494l-.639-2.487a.509.509,0,0,1,.223-.558,14,14,0,0,1,13.6-.943.509.509,0,0,1,.269.447c.029,4.959,2.1,11.092,3,13.5a1.765,1.765,0,0,1-.564,2,1.8,1.8,0,0,1-.861.359l-.918.139-.851,1.411a.5.5,0,0,1-.371.242,35.5,35.5,0,0,1-4.208.265" transform="translate(-12040.801 15504.89)"/>
    <path id="Path_96244" data-name="Path 96244" d="M574.629,737.393s-1.527-5.98-4.092-4.691-.718,7.825,4.092,4.691" transform="translate(-12024.125 15485.163)" fill="#fff"/>
    <path id="Path_96245" data-name="Path 96245" d="M728.736,595.194a.51.51,0,0,1-.4-.822l2.416-3.123a.508.508,0,1,1,.8.621l-2.415,3.124a.508.508,0,0,1-.4.2" transform="translate(-12146.335 15594.004)" fill="#fff"/>
    <path id="Path_96246" data-name="Path 96246" d="M704.339,626.742a.509.509,0,0,1-.4-.821l2.416-3.123a.509.509,0,1,1,.805.622l-2.417,3.123a.507.507,0,0,1-.4.2" transform="translate(-12127.565 15569.732)" fill="#fff"/>
    <path id="Path_96247" data-name="Path 96247" d="M702.351,599.6a.513.513,0,0,1-.312-.106l-3.124-2.417a.509.509,0,0,1,.623-.8l3.124,2.415a.51.51,0,0,1-.312.914" transform="translate(-12123.631 15590.071)" fill="#fff"/>
    <path id="Path_96248" data-name="Path 96248" d="M733.9,623.995a.493.493,0,0,1-.311-.108l-3.124-2.414a.509.509,0,0,1,.623-.805l3.124,2.414a.51.51,0,0,1-.312.914" transform="translate(-12147.905 15571.302)" fill="#fff"/>
    <path id="Path_96249" data-name="Path 96249" d="M2079.25,1472.127a.509.509,0,0,1-.295-.925l3.222-2.283a.509.509,0,1,1,.588.83l-3.222,2.283a.491.491,0,0,1-.293.095" transform="translate(-13185.368 14918.68)" fill="#fff"/>
    <path id="Path_96250" data-name="Path 96250" d="M2046.71,1495.189a.508.508,0,0,1-.3-.922l3.222-2.283a.509.509,0,1,1,.588.83l-3.223,2.281a.49.49,0,0,1-.293.095" transform="translate(-13160.332 14900.937)" fill="#fff"/>
    <path id="Path_96251" data-name="Path 96251" d="M2055.764,1466.292a.509.509,0,0,1-.416-.217l-2.284-3.22a.51.51,0,0,1,.831-.59l2.283,3.222a.509.509,0,0,1-.12.71.522.522,0,0,1-.295.095" transform="translate(-13165.541 14923.893)" fill="#fff"/>
    <path id="Path_96252" data-name="Path 96252" d="M2078.83,1498.832a.514.514,0,0,1-.418-.217l-2.283-3.22a.509.509,0,0,1,.83-.59l2.286,3.222a.512.512,0,0,1-.415.8" transform="translate(-13183.285 14898.856)" fill="#fff"/>
    <path id="Path_96256" data-name="Path 96256" d="M1171.908,1100.162A45.786,45.786,0,0,0,1146,1058.568V1034.78H1035.345v21.48a43.07,43.07,0,0,0-28.715,40.932V1267.11a7.919,7.919,0,0,0,4.774,7.3c30.5,13.013,131.255,11.075,156.194.124a7.258,7.258,0,0,0,4.311-6.677V1100.162" transform="translate(-12360.527 15252.616)" fill="#fff"/>
    <path id="Path_96257" data-name="Path 96257" d="M1004.938,1226.757a.509.509,0,0,1-.507-.51V1095.491a43.782,43.782,0,0,1,28.712-41.291v-21.12a.51.51,0,0,1,.51-.51H1144.3a.51.51,0,0,1,.51.51v23.468a46.1,46.1,0,0,1,25.91,41.914v99.961a.509.509,0,1,1-1.017,0v-99.961a45.086,45.086,0,0,0-25.622-41.135.506.506,0,0,1-.291-.459v-23.279H1034.162v20.97a.51.51,0,0,1-.341.48,42.759,42.759,0,0,0-28.373,40.452v130.756a.51.51,0,0,1-.51.51" transform="translate(-12358.834 15254.317)"/>
    <path id="Path_96258" data-name="Path 96258" d="M1266.029,2106.452c-9.387,0-18.714-.258-27.554-.782a.508.508,0,0,1,.06-1.015,488.872,488.872,0,0,0,67.391-.842.509.509,0,0,1,.088,1.015c-12.577,1.077-26.344,1.624-39.984,1.624" transform="translate(-12538.53 14430.146)"/>
    <path id="Path_96259" data-name="Path 96259" d="M1214.124,957.292c-28.761,4.728-86.87,5.2-115.943.069-2.987-.526-5.2-3.716-5.2-7.475V932.791c-.517-6.825,7.491-6.481,11.018-6.022,35.786,4.65,66.018,5.3,105.661.648,3.55-.415,9.978-.77,9.719,5.381v17.01c0,3.785-2.244,6.991-5.254,7.484" transform="translate(-12426.943 15335.882)" fill="#fff"/>
    <path id="Path_96260" data-name="Path 96260" d="M1099.163,925.382c-2.207,0-4.65.371-6.1,1.743a4.676,4.676,0,0,0-1.278,3.944V948.2c0,3.494,2.055,6.493,4.781,6.974,27.559,4.859,85.987,4.825,115.772-.071,2.754-.452,4.827-3.453,4.827-6.981v-17.01a4.427,4.427,0,0,0-1.229-3.656c-1.843-1.709-5.4-1.516-7.92-1.22-37.636,4.412-68.283,4.226-105.785-.647A23.968,23.968,0,0,0,1099.163,925.382Zm54.1,34.5c-21.593,0-42.862-1.234-56.876-3.706-3.2-.565-5.621-3.995-5.621-7.976V931.108a5.6,5.6,0,0,1,1.6-4.721c2.507-2.376,7.341-2.15,10-1.806,37.414,4.862,67.99,5.051,105.534.649,2.717-.319,6.58-.513,8.732,1.483a5.428,5.428,0,0,1,1.554,4.424l0,16.989c0,4.022-2.442,7.454-5.681,7.987-15.294,2.514-37.43,3.773-59.24,3.773" transform="translate(-12425.24 15337.563)"/>
    <path id="Path_96261" data-name="Path 96261" d="M1219.5,913.474c0,3.907-27.993,7.074-62.522,7.074s-62.522-3.167-62.522-7.074,27.993-7.076,62.522-7.076,62.522,3.17,62.522,7.076" transform="translate(-12428.1 15351.39)" fill="#d1d1d1"/>
    <path id="Path_96262" data-name="Path 96262" d="M1127.136,988.868a.51.51,0,0,1-.51-.487l-.648-16.207a.509.509,0,0,1,.489-.529.5.5,0,0,1,.528.489l.648,16.2a.507.507,0,0,1-.489.528h-.018" transform="translate(-12452.35 15301.19)"/>
    <path id="Path_96263" data-name="Path 96263" d="M1177.724,995.186a.51.51,0,0,1-.507-.489l-.648-16.2a.511.511,0,0,1,.489-.531.5.5,0,0,1,.528.489l.648,16.2a.51.51,0,0,1-.489.53h-.021" transform="translate(-12491.271 15296.333)"/>
    <path id="Path_96264" data-name="Path 96264" d="M1331.6,1003.621a.507.507,0,0,1-.507-.489l-.648-16.205a.509.509,0,1,1,1.017-.041l.648,16.2a.51.51,0,0,1-.489.53h-.021" transform="translate(-12609.659 15289.842)"/>
    <path id="Path_96265" data-name="Path 96265" d="M1388.514,1001.517a.51.51,0,0,1-.507-.489l-.648-16.2a.507.507,0,0,1,.489-.528.5.5,0,0,1,.528.486l.648,16.207a.51.51,0,0,1-.489.528h-.021" transform="translate(-12653.444 15291.461)"/>
    <path id="Path_96266" data-name="Path 96266" d="M1498.124,995.186a.508.508,0,0,1-.507-.489l-.648-16.2a.511.511,0,0,1,.489-.531.5.5,0,0,1,.528.489l.648,16.2a.51.51,0,0,1-.489.53h-.021" transform="translate(-12737.773 15296.333)"/>
    <path id="Path_96267" data-name="Path 96267" d="M1552.934,988.868a.506.506,0,0,1-.508-.487l-.648-16.207a.507.507,0,0,1,.487-.529.5.5,0,0,1,.528.489l.651,16.2a.508.508,0,0,1-.489.528h-.021" transform="translate(-12779.94 15301.19)"/>
    <path id="Path_96268" data-name="Path 96268" d="M1609.844,978.33a.51.51,0,0,1-.507-.489l-.648-16.207a.508.508,0,0,1,.487-.528.5.5,0,0,1,.531.489l.648,16.2a.507.507,0,0,1-.489.528.065.065,0,0,1-.021,0" transform="translate(-12823.726 15309.3)"/>
    <path id="Path_96269" data-name="Path 96269" d="M1443.317,1001.517a.51.51,0,0,1-.51-.489l-.648-16.2a.508.508,0,0,1,.489-.528.493.493,0,0,1,.528.486l.648,16.207a.508.508,0,0,1-.487.528h-.021" transform="translate(-12695.605 15291.461)"/>
    <path id="Path_96270" data-name="Path 96270" d="M1226.206,997.3a.51.51,0,0,1-.509-.489l-.648-16.207a.51.51,0,0,1,.489-.529.5.5,0,0,1,.528.489l.648,16.2a.506.506,0,0,1-.487.528.063.063,0,0,1-.021,0" transform="translate(-12528.57 15294.706)"/>
    <path id="Path_96271" data-name="Path 96271" d="M1281.014,999.411a.506.506,0,0,1-.507-.487l-.648-16.207a.509.509,0,0,1,1.017-.039l.648,16.2a.509.509,0,0,1-.489.528h-.021" transform="translate(-12570.738 15293.079)"/>
    <path id="Path_96272" data-name="Path 96272" d="M1102.051,1354.917a10.186,10.186,0,0,0-10.173,10.174v110.7a10.186,10.186,0,0,0,10.173,10.173h102.87a10.186,10.186,0,0,0,10.173-10.173v-110.7a10.186,10.186,0,0,0-10.173-10.174Zm102.87,132.069h-102.87a11.2,11.2,0,0,1-11.191-11.191v-110.7a11.2,11.2,0,0,1,11.191-11.191h102.87a11.2,11.2,0,0,1,11.19,11.191v110.7a11.2,11.2,0,0,1-11.19,11.191" transform="translate(-12425.33 15007.1)"/>
    <path id="Path_96273" data-name="Path 96273" d="M1195.65,1409.679a49.252,49.252,0,1,0,49.253,49.251A49.307,49.307,0,0,0,1195.65,1409.679Zm0,99.524a50.271,50.271,0,1,1,50.27-50.273,50.329,50.329,0,0,1-50.27,50.273" transform="translate(-12467.276 14964.97)"/>
    <path id="Path_96274" data-name="Path 96274" d="M1261.746,1475.4c-4.7,36.215-7.187,70.843,37.239,69.609-3.612-12.478-13.8-31.794-25.537-52.406,12.7,18.331,23.583,35.2,28.6,47.913a2.037,2.037,0,0,0,3.289.715c23.417-21.708,3.586-54.161-43.593-65.831" transform="translate(-12554.92 14913.622)" fill="#2c6e49"/>
    <path id="Path_96275" data-name="Path 96275" d="M965.69,2060.39l.007,10.312c0,3.125-3.609,6.259-10.87,8.681-14.521,4.848-38.222,5.053-53.4.521-.249-.076-.495-.15-.74-.228-7.691-2.42-11.555-5.639-11.56-8.866l-.008-10.314c0,3.229,3.869,6.446,11.56,8.868.245.076.491.152.741.226,15.181,4.534,38.879,4.329,53.4-.518,7.26-2.424,10.875-5.557,10.872-8.682" transform="translate(-12270.117 14463.555)" fill="#633509"/>
    <path id="Path_96276" data-name="Path 96276" d="M887.931,2061.808l.005,7.3c0,3.088,4.089,6.145,11.2,8.384.242.076.485.15.732.224,15,4.479,38.823,4.251,53.095-.514,6.691-2.232,10.526-5.221,10.522-8.2l0-7.3c-1.61,2.33-5.1,4.451-10.2,6.156-14.685,4.9-38.274,5.132-53.708.523-.252-.076-.5-.152-.748-.229C893.34,2066.423,889.614,2064.234,887.931,2061.808ZM925.568,2082c-9.286,0-18.576-1.1-25.986-3.31-.253-.076-.5-.153-.748-.229-7.679-2.417-11.91-5.738-11.916-9.353l-.008-10.312a.509.509,0,0,1,1.018,0c0,3.088,4.088,6.144,11.2,8.384.242.076.486.15.733.224,15.006,4.479,38.824,4.249,53.1-.514,6.691-2.235,10.526-5.222,10.522-8.2a.51.51,0,0,1,.507-.51h0a.509.509,0,0,1,.507.51v0l.009,10.307c0,3.494-3.981,6.748-11.218,9.166-7.634,2.546-17.676,3.833-27.723,3.833" transform="translate(-12268.419 14465.253)"/>
    <path id="Path_96277" data-name="Path 96277" d="M953.387,2010.078c.251.074.5.149.742.226,15.142,4.765,15.451,12.623.69,17.549-14.521,4.848-38.219,5.053-53.4.519-.249-.074-.5-.15-.74-.226-15.139-4.765-15.448-12.623-.688-17.549,14.519-4.846,38.216-5.051,53.4-.519" transform="translate(-12270.119 14504.772)" fill="#d7904b"/>
    <path id="Path_96278" data-name="Path 96278" d="M925.885,2005.566c-10.005,0-20.011,1.25-27.435,3.727-6.713,2.241-10.548,5.24-10.523,8.224.027,3.079,4.11,6.126,11.2,8.359.242.076.486.15.732.223,15.006,4.479,38.824,4.249,53.1-.514,6.712-2.242,10.547-5.238,10.522-8.225-.027-3.077-4.112-6.123-11.207-8.356-.242-.076-.487-.152-.734-.226C944.343,2006.629,935.113,2005.566,925.885,2005.566Zm-.327,24.819c-9.283,0-18.574-1.1-25.985-3.31-.252-.076-.5-.152-.748-.228-7.652-2.41-11.884-5.72-11.916-9.32-.03-3.508,3.954-6.774,11.219-9.2,14.682-4.9,38.271-5.134,53.7-.526.254.076.5.152.75.23,7.655,2.408,11.887,5.718,11.917,9.318.03,3.508-3.953,6.774-11.218,9.2-7.632,2.546-17.674,3.833-27.723,3.833" transform="translate(-12268.419 14506.557)"/>
    <path id="Path_96279" data-name="Path 96279" d="M927.115,2009.4l.007,10.312c0,3.125-3.609,6.257-10.87,8.681-14.521,4.848-38.22,5.054-53.4.519-.25-.074-.5-.15-.741-.226-7.691-2.422-11.554-5.639-11.559-8.868l-.008-10.312c0,3.226,3.868,6.446,11.559,8.868.245.076.491.152.741.226,15.181,4.532,38.879,4.329,53.4-.519,7.26-2.424,10.875-5.556,10.87-8.681" transform="translate(-12240.44 14502.782)" fill="#633509"/>
    <path id="Path_96280" data-name="Path 96280" d="M915.992,2091.96c-9.659,0-18.856-1.162-25.967-3.284-.252-.076-.5-.153-.748-.231-1.019-.32-1.995-.662-2.9-1.017a.509.509,0,1,1,.371-.948c.885.346,1.838.68,2.835.994.243.078.486.152.733.226,7.185,2.145,16.549,3.3,26.358,3.241h0a.508.508,0,0,1,0,1.017c-.231,0-.461,0-.69,0" transform="translate(-12267.762 14443.509)"/>
    <path id="Path_96281" data-name="Path 96281" d="M887.659,2030.983a.509.509,0,0,1,0-1.017c10.162-.058,19.657-1.393,26.736-3.755,6.693-2.235,10.526-5.222,10.524-8.2l-.007-7.3c-1.61,2.327-5.095,4.449-10.2,6.153-14.682,4.9-38.275,5.132-53.707.526q-.377-.114-.747-.23c-5.486-1.726-9.213-3.914-10.9-6.341l.006,7.3c0,2.646,2.976,5.27,8.368,7.387a.509.509,0,1,1-.371.948c-5.894-2.315-9.01-5.2-9.015-8.333l-.008-10.312v0a.51.51,0,0,1,.508-.51h0a.51.51,0,0,1,.509.51c0,3.088,4.088,6.142,11.2,8.381.243.076.487.152.733.226,15,4.479,38.823,4.249,53.094-.514,6.691-2.235,10.526-5.221,10.522-8.2a.51.51,0,1,1,1.019,0v0l.007,10.307c0,3.494-3.979,6.749-11.218,9.163-7.178,2.4-16.786,3.748-27.052,3.808h0" transform="translate(-12238.742 14504.484)"/>
    <path id="Path_96282" data-name="Path 96282" d="M914.81,1959.078c.251.076.5.149.743.228,15.142,4.765,15.451,12.623.692,17.55-14.523,4.848-38.221,5.051-53.4.519-.25-.074-.5-.15-.741-.226-15.139-4.765-15.447-12.623-.688-17.549,14.519-4.848,38.216-5.053,53.4-.521" transform="translate(-12240.439 14544.009)" fill="#d7904b"/>
    <path id="Path_96283" data-name="Path 96283" d="M887.31,1954.573c-10.005,0-20.01,1.252-27.434,3.73-6.712,2.241-10.548,5.238-10.522,8.224.026,3.077,4.11,6.124,11.2,8.356.243.076.487.152.734.226,15,4.479,38.823,4.248,53.095-.515,6.712-2.242,10.547-5.24,10.522-8.224-.025-3.079-4.11-6.123-11.2-8.356-.245-.079-.487-.153-.736-.226C905.768,1955.638,896.538,1954.573,887.31,1954.573Zm-.328,24.822c-9.284,0-18.573-1.1-25.984-3.31-.251-.076-.5-.152-.747-.23-7.654-2.408-11.884-5.717-11.916-9.318-.031-3.508,3.954-6.774,11.219-9.2,14.683-4.9,38.273-5.132,53.705-.524.251.074.5.152.747.228,7.655,2.41,11.887,5.72,11.919,9.32.03,3.506-3.955,6.774-11.218,9.2-7.634,2.549-17.676,3.833-27.725,3.836" transform="translate(-12238.742 14545.789)"/>
    <path id="Path_96284" data-name="Path 96284" d="M955.2,1951.92l.009,10.314c0,3.123-3.612,6.257-10.872,8.681-14.521,4.846-38.22,5.051-53.4.519-.25-.074-.495-.15-.74-.228-7.691-2.419-11.555-5.639-11.56-8.866l-.008-10.312c0,3.227,3.869,6.446,11.56,8.866.245.079.491.153.74.229,15.18,4.532,38.88,4.327,53.4-.519,7.261-2.424,10.875-5.558,10.87-8.684" transform="translate(-12262.052 14547.006)" fill="#633509"/>
    <path id="Path_96285" data-name="Path 96285" d="M877.447,1953.345l.005,7.3c0,3.086,4.089,6.142,11.2,8.382.242.076.487.15.734.224,15.005,4.481,38.824,4.25,53.093-.514,6.693-2.233,10.529-5.222,10.524-8.2l-.007-7.3c-1.608,2.329-5.095,4.451-10.2,6.156-14.685,4.9-38.276,5.132-53.709.523-.252-.074-.5-.15-.748-.228C882.856,1957.961,879.13,1955.772,877.447,1953.345Zm37.635,20.193c-9.286,0-18.574-1.1-25.985-3.309-.252-.074-.5-.15-.748-.229-7.679-2.417-11.91-5.738-11.916-9.353l-.008-10.312a.509.509,0,0,1,1.018,0c0,3.088,4.088,6.144,11.2,8.384.242.076.486.15.732.224,15,4.481,38.823,4.25,53.095-.515,6.691-2.232,10.526-5.221,10.522-8.2a.51.51,0,0,1,1.019,0v.007l.007,10.305c0,3.494-3.979,6.748-11.218,9.165-7.632,2.549-17.674,3.833-27.723,3.833" transform="translate(-12260.353 14548.698)"/>
    <path id="Path_96286" data-name="Path 96286" d="M942.9,1901.607q.374.111.74.228c15.142,4.765,15.451,12.621.692,17.549-14.521,4.846-38.221,5.051-53.4.519-.25-.076-.5-.15-.741-.228-15.139-4.765-15.449-12.621-.689-17.55,14.52-4.846,38.218-5.051,53.4-.519" transform="translate(-12262.052 14588.226)" fill="#d7904b"/>
    <path id="Path_96287" data-name="Path 96287" d="M915.4,1897.1c-10.005,0-20.011,1.25-27.433,3.729-6.713,2.239-10.548,5.238-10.522,8.222.026,3.079,4.109,6.125,11.2,8.358.242.076.486.15.733.224,15.005,4.481,38.823,4.25,53.095-.514,6.714-2.242,10.55-5.238,10.522-8.222-.026-3.079-4.11-6.126-11.2-8.359-.245-.076-.487-.152-.734-.226h0C933.861,1898.164,924.631,1897.1,915.4,1897.1Zm-.325,24.819c-9.286,0-18.575-1.1-25.986-3.31-.252-.074-.5-.15-.748-.228-7.653-2.41-11.884-5.72-11.915-9.32-.031-3.506,3.953-6.774,11.218-9.2,14.682-4.9,38.27-5.132,53.7-.526.251.076.5.152.75.23,7.653,2.408,11.885,5.718,11.917,9.321.03,3.505-3.953,6.774-11.218,9.2-7.634,2.546-17.674,3.833-27.723,3.833" transform="translate(-12260.355 14590.008)"/>
    <path id="Path_96288" data-name="Path 96288" d="M925.6,1941.014a.509.509,0,0,1-.087-1.01l52.445-9.06a.509.509,0,0,1,.175,1l-52.446,9.06a.612.612,0,0,1-.088.007" transform="translate(-12297.791 14563.15)"/>
    <path id="Path_96290" data-name="Path 96290" d="M1507.16,1784.319c0,4.131,29.9,13.234,65.912,13.234s66.129-9.1,66.129-13.234-29.831-7.339-65.843-7.339-66.2,3.206-66.2,7.339" transform="translate(-12745.615 14681.599)" fill="#fff"/>
    <path id="Path_96291" data-name="Path 96291" d="M1571.658,1775.8a451.412,451.412,0,0,0-46.548,2.117c-18.6,2.034-19.141,4.442-19.141,4.712,0,1.248,5.173,4.433,19.058,7.671a215.535,215.535,0,0,0,92.8,0c13.963-3.243,19.166-6.426,19.166-7.671,0-.27-.533-2.682-18.963-4.712A446.787,446.787,0,0,0,1571.658,1775.8Zm-.286,20.571a209.912,209.912,0,0,1-46.575-5.081c-9.595-2.235-19.847-5.686-19.847-8.661,0-.874,0-3.531,20.049-5.725a452.306,452.306,0,0,1,46.658-2.122,447.644,447.644,0,0,1,46.481,2.122c19.87,2.189,19.87,4.851,19.87,5.725,0,2.971-10.307,6.423-19.953,8.663a211.489,211.489,0,0,1-46.684,5.079" transform="translate(-12743.915 14683.291)"/>
    <path id="Path_96292" data-name="Path 96292" d="M1518.65,1810.637c0,4.131,25.947,13.274,61.961,13.274s66.127-9.1,66.127-13.234-29.831-7.336-65.843-7.336-62.245,3.164-62.245,7.3" transform="translate(-12754.454 14661.318)" fill="#fff"/>
    <path id="Path_96293" data-name="Path 96293" d="M1579.2,1802.147a404.353,404.353,0,0,0-44.567,2.1c-16.341,1.933-17.169,4.248-17.169,4.694,0,3.28,24.141,12.763,61.452,12.763a210.451,210.451,0,0,0,46.453-5.053c13.961-3.24,19.164-6.426,19.164-7.671,0-.267-.531-2.68-18.963-4.712A446.576,446.576,0,0,0,1579.2,1802.147Zm-.284,20.573c-36.091,0-62.469-9.067-62.469-13.783,0-.884,0-3.568,18.066-5.7a405.445,405.445,0,0,1,44.686-2.1,448.129,448.129,0,0,1,46.481,2.122c19.872,2.191,19.872,4.85,19.872,5.724,0,2.973-10.307,6.423-19.953,8.663a211.523,211.523,0,0,1-46.684,5.081" transform="translate(-12752.762 14663.017)"/>
    <path id="Path_96294" data-name="Path 96294" d="M1766.32,1660.746l19.667,10.874,40.041-56.67a15.939,15.939,0,0,0-4.4-22.6,13.887,13.887,0,0,0-19.621,4.876l-35.691,63.525" transform="translate(-12945.001 14825.351)" fill="#fff"/>
    <path id="Path_96295" data-name="Path 96295" d="M1765.318,1658.832l18.82,10.4,39.779-56.3a15.436,15.436,0,0,0-4.255-21.886,13.378,13.378,0,0,0-18.9,4.7Zm18.973,11.581a.494.494,0,0,1-.245-.064l-19.669-10.873a.52.52,0,0,1-.242-.307.51.51,0,0,1,.046-.39l35.691-63.525a14.4,14.4,0,0,1,20.34-5.056,16.454,16.454,0,0,1,4.535,23.329l-40.039,56.67a.513.513,0,0,1-.417.215" transform="translate(-12943.307 14827.067)"/>
    <path id="Path_96296" data-name="Path 96296" d="M1895.218,1630.238a.51.51,0,0,1-.438-.766l8.9-15.314a13.21,13.21,0,0,1,6.511-5.515,9.767,9.767,0,0,1,10.289,1.845.509.509,0,0,1-.65.784,8.7,8.7,0,0,0-9.276-1.677,12.144,12.144,0,0,0-6,5.083l-8.894,15.305a.516.516,0,0,1-.443.254" transform="translate(-13043.78 14811.667)"/>
    <path id="Path_96297" data-name="Path 96297" d="M1872.962,1719.081a.51.51,0,0,1-.44-.766l3.572-6.149a.51.51,0,1,1,.881.512l-3.573,6.149a.51.51,0,0,1-.44.254" transform="translate(-13026.656 14731.658)"/>
    <path id="Path_96298" data-name="Path 96298" d="M1821.545,1776.431a.51.51,0,0,1-.438-.766l8.995-15.481a.509.509,0,0,1,.881.51l-9,15.483a.506.506,0,0,1-.44.254" transform="translate(-12987.098 14694.716)"/>
    <path id="Path_96299" data-name="Path 96299" d="M1506.52,1807.47c13.668,12.155,115.036,11.221,132.122,0,0,0-15.333,75.387-15.377,75.5-1.149,3.01-22.054,5.379-49.26,5.379-20.7,0-39.829-.671-47.945-2.295a4.743,4.743,0,0,1-3.893-3.448l-15.647-75.14" transform="translate(-12745.123 14658.141)" fill="#d1d1d1"/>
    <path id="Path_96300" data-name="Path 96300" d="M1505.6,1806.993l15.37,73.812a4.238,4.238,0,0,0,3.494,3.053c7.26,1.451,24.7,2.284,47.846,2.284,28.828,0,47.708-2.6,48.773-5.021.378-1.776,13.246-65.042,15.135-74.328-10.213,5.552-40.422,8.146-66.611,8.25q-.806,0-1.619,0C1544.039,1815.047,1514.612,1812.932,1505.6,1806.993Zm66.71,80.166c-23.212,0-40.722-.84-48.044-2.3a5.247,5.247,0,0,1-4.292-3.844l-15.647-75.14a.509.509,0,0,1,.837-.484c6.047,5.379,31.325,8.778,64.438,8.637,26.964-.108,58.16-2.834,67.065-8.684a.51.51,0,0,1,.777.528c-15.34,75.428-15.379,75.534-15.4,75.585-1.495,3.919-26.83,5.7-49.735,5.7" transform="translate(-12743.426 14659.842)"/>
    <path id="Path_96301" data-name="Path 96301" d="M1844.512,2022.076a.509.509,0,0,1-.355-.145l-10.349-10.093a.509.509,0,1,1,.71-.729l10.349,10.093a.507.507,0,0,1,.009.719.5.5,0,0,1-.364.155" transform="translate(-12996.808 14501.579)" fill="#fff"/>
    <path id="Path_96302" data-name="Path 96302" d="M1707.269,1912.766a.505.505,0,0,1-.355-.145l-10.349-10.093a.509.509,0,1,1,.71-.729l10.349,10.093a.509.509,0,0,1,.009.719.5.5,0,0,1-.365.155" transform="translate(-12891.216 14585.678)" fill="#fff"/>
    <path id="Path_96303" data-name="Path 96303" d="M1706.518,2021.574a.5.5,0,0,1-.355-.145l-6.854-6.684a.509.509,0,0,1,.71-.729l6.854,6.684a.51.51,0,0,1-.355.874" transform="translate(-12893.328 14499.343)" fill="#fff"/>
    <path id="Path_96304" data-name="Path 96304" d="M1593.591,1908.427a.509.509,0,0,1-.355-.145l-13.331-13a.509.509,0,1,1,.71-.728l13.331,13a.509.509,0,0,1-.355.874" transform="translate(-12801.464 14591.256)" fill="#fff"/>
    <path id="Path_96305" data-name="Path 96305" d="M1982.172,1862.255a.512.512,0,0,1-.353-.143l-8.4-8.123a.51.51,0,0,1,.708-.733l8.4,8.123a.51.51,0,0,1-.355.876" transform="translate(-13104.213 14623.024)" fill="#fff"/>
    <path id="Path_96306" data-name="Path 96306" d="M1864.48,1919.206a.521.521,0,0,1-.36-.147l-17.471-17.266a.51.51,0,1,1,.717-.724l17.471,17.266a.509.509,0,0,1-.357.872" transform="translate(-13006.688 14586.242)" fill="#fff"/>
    <path id="Path_96307" data-name="Path 96307" d="M1598.8,1847.924c-18.993,0-34.5-1.407-48.6-4.331a.509.509,0,1,1,.208-1c19.275,4,41.236,5.145,71.21,3.724a.509.509,0,0,1,.048,1.017c-8.181.387-15.769.586-22.868.586" transform="translate(-12778.415 14631.122)" fill="#fff"/>
  </g>
</svg>
